<svg width="122" height="37" viewBox="0 0 122 37" fill="none" xmlns="http://www.w3.org/2000/svg">
<g clip-path="url(#clip0_1099_17929)">
<path fill-rule="evenodd" clip-rule="evenodd" d="M1.64228 16.4691C1.93936 13.3638 3.13204 10.3933 5.09637 7.91219C7.38286 5.02422 10.5849 2.96348 14.1984 2.05453C17.8117 1.14558 21.631 1.44008 25.0547 2.89163C27.9961 4.13867 30.5019 6.17883 32.2892 8.7598L30.1966 9.88689C28.6712 7.75566 26.5682 6.0695 24.1112 5.02783C21.1713 3.78143 17.8918 3.52856 14.7892 4.30904C11.6865 5.08952 8.93694 6.85901 6.97362 9.33881C5.33277 11.4113 4.31897 13.8815 4.03021 16.4691H1.64228ZM3.85669 6.97008C1.67878 9.72092 0.36847 13.022 0.067069 16.4691C0.0225103 16.9788 0 17.4915 0 18.0062H1.56892H3.94471H5.51362C5.51362 15.209 6.46338 12.4912 8.2133 10.2809C9.96323 8.07066 12.4139 6.49351 15.1793 5.79786C17.9447 5.10221 20.8678 5.3276 23.4881 6.43852C25.8333 7.43283 27.8168 9.08598 29.1936 11.1797C29.4618 11.5874 30.0043 11.7446 30.4381 11.5109L33.6986 9.75481C34.1325 9.52111 34.2926 8.9857 34.0333 8.57251C32.0608 5.43065 29.1463 2.95145 25.6778 1.48093C21.9346 -0.106095 17.7587 -0.428076 13.8082 0.565708C9.85753 1.55949 6.35658 3.81256 3.85669 6.97008ZM3.85669 29.9207C1.35679 26.7632 0 22.8806 0 18.8846H5.51362C5.51362 21.6818 6.46338 24.3996 8.2133 26.6099C9.96323 28.8202 12.4139 30.3972 15.1793 31.0929C17.9447 31.7885 20.8678 31.5632 23.4881 30.4522C25.8333 29.4579 27.8168 27.8048 29.1936 25.7111C29.4618 25.3033 30.0043 25.1462 30.4381 25.3799L33.6986 27.136C34.1325 27.3697 34.2926 27.9051 34.0333 28.3183C32.0608 31.4601 29.1463 33.9393 25.6778 35.4099C21.9346 36.9968 17.7587 37.3189 13.8082 36.3251C9.85753 35.3313 6.35658 33.0782 3.85669 29.9207ZM7.84463 18.0062C7.84463 15.7402 8.61404 13.5385 10.0317 11.748C11.4493 9.95738 13.4345 8.67972 15.6748 8.11617C17.9151 7.55262 20.2831 7.73521 22.4058 8.63518C24.3568 9.4623 25.9986 10.8522 27.1166 12.6134C27.2801 12.8708 27.1798 13.2055 26.9086 13.3516L24.2375 14.7902C23.9663 14.9364 23.6277 14.8377 23.455 14.5861C22.7892 13.6168 21.8518 12.8506 20.7502 12.3836C19.4765 11.8436 18.0558 11.734 16.7117 12.0722C15.3674 12.4103 14.1763 13.1769 13.3257 14.2513C12.4751 15.3256 12.0134 16.6465 12.0134 18.0062H7.84463ZM9.28953 20.2021C9.51875 21.7013 10.1367 23.126 11.0942 24.3353C12.3289 25.8948 14.0581 27.0077 16.0092 27.4985C17.9604 27.9893 20.0229 27.8302 21.8717 27.0464C23.3054 26.4386 24.5475 25.4818 25.4856 24.2762L24.172 23.5687C23.4045 24.4973 22.4157 25.2367 21.2843 25.7164C19.7366 26.3725 18.0104 26.5056 16.3771 26.0947C14.7439 25.6839 13.2966 24.7524 12.263 23.4471C11.5074 22.4927 11.0045 21.3781 10.7886 20.2021H9.28953ZM10.0316 25.1428C8.89081 23.702 8.16978 21.9948 7.93169 20.2021C7.87392 19.7671 7.84459 19.327 7.84459 18.8846H9.18937H10.6686H12.0134C12.0134 20.2443 12.475 21.5652 13.3256 22.6395C14.1762 23.7139 15.3674 24.4804 16.7115 24.8186C18.0558 25.1568 19.4765 25.0472 20.7502 24.5072C21.8518 24.0402 22.7892 23.274 23.4549 22.3046C23.6277 22.0531 23.9663 21.9544 24.2374 22.1005L26.9086 23.5392C27.1798 23.6853 27.28 24.02 27.1166 24.2774C25.9986 26.0386 24.3568 27.4285 22.4058 28.2556C20.2831 29.1556 17.9151 29.3382 15.6748 28.7746C13.4345 28.211 11.4493 26.9335 10.0316 25.1428Z" fill="#05766F"/>
</g>
<path d="M62.8751 26.072C61.9552 26.8364 60.925 27.4231 59.7843 27.832C58.6437 28.2409 57.4616 28.4453 56.2382 28.4453C55.2999 28.4453 54.3939 28.3253 53.52 28.0853C52.6553 27.8542 51.8412 27.5253 51.0777 27.0986C50.3234 26.6631 49.6335 26.1431 49.008 25.5386C48.3825 24.9342 47.8443 24.2675 47.3936 23.5386C46.9521 22.8009 46.6071 22.0142 46.3588 21.1786C46.1196 20.3342 46 19.4586 46 18.552C46 17.6453 46.1196 16.7698 46.3588 15.9253C46.6071 15.0809 46.9521 14.2942 47.3936 13.5653C47.8443 12.8275 48.3825 12.1564 49.008 11.552C49.6335 10.9475 50.3234 10.432 51.0777 10.0053C51.8412 9.56976 52.6553 9.23642 53.52 9.00531C54.3939 8.76531 55.2999 8.64531 56.2382 8.64531C57.4616 8.64531 58.6437 8.84976 59.7843 9.25865C60.925 9.65865 61.9552 10.2453 62.8751 11.0186L60.7778 14.352C60.1983 13.7475 59.513 13.2853 58.7219 12.9653C57.9308 12.6364 57.1029 12.472 56.2382 12.472C55.3643 12.472 54.5456 12.632 53.7821 12.952C53.0186 13.272 52.3517 13.7075 51.7814 14.2586C51.2111 14.8009 50.7603 15.4453 50.4292 16.192C50.098 16.9298 49.9325 17.7164 49.9325 18.552C49.9325 19.3875 50.098 20.1742 50.4292 20.912C50.7603 21.6409 51.2111 22.2809 51.7814 22.832C52.3517 23.3831 53.0186 23.8186 53.7821 24.1386C54.5456 24.4586 55.3643 24.6186 56.2382 24.6186C57.1029 24.6186 57.9308 24.4586 58.7219 24.1386C59.513 23.8098 60.1983 23.3431 60.7778 22.7386L62.8751 26.072Z" fill="#05766F"/>
<path d="M68.5737 28.032H64.7792V8.07198H68.5737V28.032Z" fill="#05766F"/>
<path d="M75.9005 9.87198C75.9005 10.2098 75.8315 10.5253 75.6935 10.8186C75.5648 11.112 75.3854 11.3698 75.1554 11.592C74.9254 11.8053 74.6541 11.9786 74.3413 12.112C74.0378 12.2364 73.7112 12.2986 73.3617 12.2986C73.0121 12.2986 72.681 12.2364 72.3682 12.112C72.0646 11.9786 71.7979 11.8053 71.5679 11.592C71.3471 11.3698 71.1678 11.112 71.0298 10.8186C70.901 10.5253 70.8366 10.2098 70.8366 9.87198C70.8366 9.54309 70.901 9.23198 71.0298 8.93865C71.1678 8.63642 71.3471 8.37865 71.5679 8.16531C71.7979 7.94309 72.0646 7.76976 72.3682 7.64531C72.681 7.51198 73.0121 7.44531 73.3617 7.44531C73.7112 7.44531 74.0378 7.51198 74.3413 7.64531C74.6541 7.76976 74.9254 7.94309 75.1554 8.16531C75.3854 8.37865 75.5648 8.63642 75.6935 8.93865C75.8315 9.23198 75.9005 9.54309 75.9005 9.87198ZM75.252 28.032H71.4575V13.752H75.252V28.032Z" fill="#05766F"/>
<path d="M81.9027 28.032H78.1358V13.752H79.0465L80.2883 15.1386C80.8954 14.6053 81.5807 14.1964 82.3442 13.912C83.1169 13.6186 83.9218 13.472 84.7589 13.472C85.6604 13.472 86.5113 13.6409 87.3115 13.9786C88.1118 14.3075 88.8109 14.7653 89.4089 15.352C90.0068 15.9298 90.4759 16.6098 90.8163 17.392C91.1658 18.1653 91.3406 18.992 91.3406 19.872V28.032H87.5737V19.872C87.5737 19.4986 87.5001 19.1475 87.3529 18.8186C87.2058 18.4809 87.0034 18.1875 86.7458 17.9386C86.4883 17.6898 86.1893 17.4942 85.8489 17.352C85.5086 17.2098 85.1452 17.1386 84.7589 17.1386C84.3633 17.1386 83.9908 17.2098 83.6413 17.352C83.2917 17.4942 82.9881 17.6898 82.7306 17.9386C82.473 18.1875 82.2706 18.4809 82.1235 18.8186C81.9763 19.1475 81.9027 19.4986 81.9027 19.872V28.032Z" fill="#05766F"/>
<path d="M106.946 16.592L104.187 19.272C104.049 18.8986 103.86 18.5653 103.621 18.272C103.382 17.9698 103.11 17.7164 102.807 17.512C102.512 17.3075 102.191 17.152 101.841 17.0453C101.491 16.9386 101.133 16.8853 100.765 16.8853C100.25 16.8853 99.762 16.9875 99.3021 17.192C98.8514 17.3964 98.4558 17.6853 98.1155 18.0586C97.7843 18.4231 97.5222 18.8586 97.329 19.3653C97.1358 19.872 97.0392 20.432 97.0392 21.0453C97.0392 21.5431 97.1358 22.0098 97.329 22.4453C97.5222 22.8809 97.7843 23.2631 98.1155 23.592C98.4558 23.9209 98.8514 24.1786 99.3021 24.3653C99.762 24.552 100.25 24.6453 100.765 24.6453C101.133 24.6453 101.487 24.5964 101.827 24.4986C102.168 24.4009 102.485 24.2631 102.779 24.0853C103.083 23.8986 103.35 23.6764 103.58 23.4186C103.819 23.152 104.012 22.8586 104.159 22.5386L106.919 25.2186C106.569 25.6986 106.164 26.1298 105.704 26.512C105.254 26.8942 104.762 27.2186 104.228 27.4853C103.704 27.752 103.147 27.952 102.558 28.0853C101.979 28.2275 101.381 28.2986 100.765 28.2986C99.7253 28.2986 98.7456 28.112 97.8257 27.7386C96.915 27.3564 96.1147 26.8364 95.4248 26.1786C94.7441 25.5209 94.206 24.752 93.8105 23.872C93.4149 22.992 93.2171 22.0498 93.2171 21.0453C93.2171 19.952 93.4149 18.9298 93.8105 17.9786C94.206 17.0275 94.7441 16.2009 95.4248 15.4986C96.1147 14.7875 96.915 14.2275 97.8257 13.8186C98.7456 13.4098 99.7253 13.2053 100.765 13.2053C101.381 13.2053 101.984 13.2809 102.572 13.432C103.17 13.5831 103.736 13.8053 104.269 14.0986C104.812 14.3831 105.309 14.7342 105.76 15.152C106.22 15.5698 106.615 16.0498 106.946 16.592Z" fill="#05766F"/>
<path d="M112.562 28.032H108.795V8.07198H112.562V14.3786C113.013 14.0498 113.477 13.8186 113.956 13.6853C114.434 13.5431 114.922 13.472 115.418 13.472C116.329 13.472 117.184 13.6409 117.985 13.9786C118.785 14.3075 119.48 14.7653 120.068 15.352C120.666 15.9298 121.135 16.6098 121.476 17.392C121.825 18.1653 122 18.992 122 19.872V28.032H118.206V19.872H118.233C118.233 19.4986 118.16 19.1475 118.012 18.8186C117.865 18.4809 117.663 18.1875 117.405 17.9386C117.148 17.6898 116.849 17.4942 116.508 17.352C116.168 17.2098 115.805 17.1386 115.418 17.1386C115.023 17.1386 114.65 17.2098 114.301 17.352C113.951 17.4942 113.648 17.6898 113.39 17.9386C113.132 18.1875 112.93 18.4809 112.783 18.8186C112.636 19.1475 112.562 19.4986 112.562 19.872V28.032Z" fill="#05766F"/>
<defs>
<clipPath id="clip0_1099_17929">
<rect width="34.18" height="36.8908" fill="white"/>
</clipPath>
</defs>
</svg>
