<svg width="24" height="25" viewBox="0 0 24 25" fill="none" xmlns="http://www.w3.org/2000/svg">
<path d="M16 18.5C16 17.4391 15.5786 16.4217 14.8284 15.6716C14.0783 14.9214 13.0609 14.5 12 14.5C10.9391 14.5 9.92172 14.9214 9.17157 15.6716C8.42143 16.4217 8 17.4391 8 18.5" stroke="#05766F" stroke-width="2" stroke-linecap="round" stroke-linejoin="round"/>
<path d="M12 14.5C13.6569 14.5 15 13.1569 15 11.5C15 9.84315 13.6569 8.5 12 8.5C10.3431 8.5 9 9.84315 9 11.5C9 13.1569 10.3431 14.5 12 14.5Z" stroke="#05766F" stroke-width="2" stroke-linecap="round" stroke-linejoin="round"/>
<path d="M19 4.5H5C3.89543 4.5 3 5.39543 3 6.5V20.5C3 21.6046 3.89543 22.5 5 22.5H19C20.1046 22.5 21 21.6046 21 20.5V6.5C21 5.39543 20.1046 4.5 19 4.5Z" stroke="#05766F" stroke-width="2" stroke-linecap="round" stroke-linejoin="round"/>
<path d="M8 2.5V4.5M16 2.5V4.5" stroke="#05766F" stroke-width="2" stroke-linecap="round" stroke-linejoin="round"/>
</svg>
