<svg width="24" height="25" viewBox="0 0 24 25" fill="none" xmlns="http://www.w3.org/2000/svg">
<path d="M21.7097 9.21017C22.9597 7.96017 22.3897 6.50017 21.7097 5.79017L18.7097 2.79017C17.4497 1.54017 15.9997 2.11017 15.2897 2.79017L13.5897 4.50017H10.9997C9.09969 4.50017 7.99968 5.50017 7.43968 6.65017L2.99968 11.0902V15.0902L2.28968 15.7902C1.03968 17.0502 1.60968 18.5002 2.28968 19.2102L5.28968 22.2102C5.82968 22.7502 6.40968 22.9502 6.95968 22.9502C7.66968 22.9502 8.31968 22.6002 8.70968 22.2102L11.4097 19.5002H14.9997C16.6997 19.5002 17.5597 18.4402 17.8697 17.4002C18.9997 17.1002 19.6197 16.2402 19.8697 15.4002C21.4197 15.0002 21.9997 13.5302 21.9997 12.5002V9.50017H21.4097L21.7097 9.21017ZM19.9997 12.5002C19.9997 12.9502 19.8097 13.5002 18.9997 13.5002H17.9997V14.5002C17.9997 14.9502 17.8097 15.5002 16.9997 15.5002H15.9997V16.5002C15.9997 16.9502 15.8097 17.5002 14.9997 17.5002H10.5897L7.30968 20.7802C6.99968 21.0702 6.81968 20.9002 6.70968 20.7902L3.71968 17.8102C3.42968 17.5002 3.59968 17.3202 3.70968 17.2102L4.99968 15.9102V11.9102L6.99968 9.91017V11.5002C6.99968 12.7102 7.79969 14.5002 9.99969 14.5002C12.1997 14.5002 12.9997 12.7102 12.9997 11.5002H19.9997V12.5002ZM20.2897 7.79017L18.5897 9.50017H10.9997V11.5002C10.9997 11.9502 10.8097 12.5002 9.99969 12.5002C9.18969 12.5002 8.99968 11.9502 8.99968 11.5002V8.50017C8.99968 8.04017 9.16969 6.50017 10.9997 6.50017H14.4097L16.6897 4.22017C16.9997 3.93017 17.1797 4.10017 17.2897 4.21017L20.2797 7.19017C20.5697 7.50017 20.3997 7.68017 20.2897 7.79017Z" fill="#05766F"/>
</svg>
