<svg width="24" height="25" viewBox="0 0 24 25" fill="none" xmlns="http://www.w3.org/2000/svg">
<rect y="0.890625" width="24" height="24" rx="4" fill="#F4F6FF"/>
<path d="M15.3577 5H8.65032C5.73687 5 4 6.736 4 9.648V16.344C4 19.264 5.73687 21 8.65032 21H15.3497C18.2631 21 20 19.264 20 16.352V9.648C20.008 6.736 18.2711 5 15.3577 5ZM12.004 16.104C10.2911 16.104 8.89844 14.712 8.89844 13C8.89844 11.288 10.2911 9.896 12.004 9.896C13.7168 9.896 15.1095 11.288 15.1095 13C15.1095 14.712 13.7168 16.104 12.004 16.104ZM16.7423 8.904C16.7023 9 16.6463 9.088 16.5743 9.168C16.4942 9.24 16.4062 9.296 16.3101 9.336C16.2141 9.376 16.11 9.4 16.006 9.4C15.7899 9.4 15.5898 9.32 15.4377 9.168C15.3657 9.088 15.3096 9 15.2696 8.904C15.2296 8.808 15.2056 8.704 15.2056 8.6C15.2056 8.496 15.2296 8.392 15.2696 8.296C15.3096 8.192 15.3657 8.112 15.4377 8.032C15.6218 7.848 15.9019 7.76 16.1581 7.816C16.2141 7.824 16.2621 7.84 16.3101 7.864C16.3582 7.88 16.4062 7.904 16.4542 7.936C16.4942 7.96 16.5342 8 16.5743 8.032C16.6463 8.112 16.7023 8.192 16.7423 8.296C16.7824 8.392 16.8064 8.496 16.8064 8.6C16.8064 8.704 16.7824 8.808 16.7423 8.904Z" fill="url(#paint0_linear_1099_17940)"/>
<g clip-path="url(#clip0_1099_17940)">
<path d="M16.25 5H7.75C5.67893 5 4 6.67893 4 8.75V17.25C4 19.3211 5.67893 21 7.75 21H16.25C18.3211 21 20 19.3211 20 17.25V8.75C20 6.67893 18.3211 5 16.25 5Z" fill="url(#paint1_radial_1099_17940)"/>
<path d="M16.25 5H7.75C5.67893 5 4 6.67893 4 8.75V17.25C4 19.3211 5.67893 21 7.75 21H16.25C18.3211 21 20 19.3211 20 17.25V8.75C20 6.67893 18.3211 5 16.25 5Z" fill="url(#paint2_radial_1099_17940)"/>
<path d="M12.0006 6.75C10.3032 6.75 10.0901 6.75744 9.4235 6.78775C8.75813 6.81825 8.30394 6.92356 7.90656 7.07812C7.49544 7.23775 7.14675 7.45131 6.79938 7.79881C6.45169 8.14625 6.23813 8.49494 6.078 8.90587C5.923 9.30338 5.81756 9.75775 5.78762 10.4228C5.75781 11.0895 5.75 11.3026 5.75 13.0001C5.75 14.6975 5.7575 14.9099 5.78775 15.5765C5.81838 16.2419 5.92369 16.6961 6.07812 17.0934C6.23787 17.5046 6.45144 17.8533 6.79894 18.2006C7.14625 18.5483 7.49494 18.7624 7.90575 18.922C8.30344 19.0766 8.75769 19.1819 9.42294 19.2124C10.0896 19.2427 10.3025 19.2501 11.9998 19.2501C13.6974 19.2501 13.9097 19.2427 14.5764 19.2124C15.2417 19.1819 15.6964 19.0766 16.0941 18.922C16.5051 18.7624 16.8532 18.5483 17.2005 18.2006C17.5482 17.8533 17.7617 17.5046 17.9219 17.0936C18.0755 16.6961 18.181 16.2417 18.2122 15.5766C18.2422 14.91 18.25 14.6975 18.25 13.0001C18.25 11.3026 18.2422 11.0896 18.2122 10.4229C18.181 9.75756 18.0755 9.30344 17.9219 8.90606C17.7617 8.49494 17.5482 8.14625 17.2005 7.79881C16.8529 7.45119 16.5052 7.23762 16.0938 7.07819C15.6953 6.92356 15.2409 6.81819 14.5755 6.78775C13.9088 6.75744 13.6966 6.75 11.9986 6.75H12.0006ZM11.4399 7.87631C11.6063 7.87606 11.792 7.87631 12.0006 7.87631C13.6694 7.87631 13.8671 7.88231 14.5261 7.91225C15.1355 7.94012 15.4663 8.04194 15.6866 8.1275C15.9783 8.24075 16.1862 8.37619 16.4048 8.595C16.6236 8.81375 16.7589 9.02206 16.8725 9.31375C16.9581 9.53375 17.06 9.8645 17.0878 10.4739C17.1177 11.1328 17.1242 11.3306 17.1242 12.9986C17.1242 14.6666 17.1177 14.8646 17.0878 15.5234C17.0599 16.1327 16.9581 16.4635 16.8725 16.6836C16.7593 16.9753 16.6236 17.1829 16.4048 17.4016C16.1861 17.6203 15.9784 17.7557 15.6866 17.869C15.4665 17.9549 15.1355 18.0565 14.5261 18.0844C13.8673 18.1143 13.6694 18.1208 12.0006 18.1208C10.3317 18.1208 10.1339 18.1143 9.47506 18.0844C8.86569 18.0563 8.53494 17.9544 8.31444 17.8689C8.02281 17.7556 7.81444 17.6202 7.59569 17.4014C7.37694 17.1827 7.24156 16.9749 7.128 16.6831C7.04244 16.463 6.9405 16.1322 6.91275 15.5229C6.88281 14.864 6.87681 14.6661 6.87681 12.9971C6.87681 11.3281 6.88281 11.1312 6.91275 10.4723C6.94062 9.86294 7.04244 9.53219 7.128 9.31187C7.24131 9.02019 7.37694 8.81188 7.59575 8.59313C7.8145 8.37438 8.02281 8.23894 8.3145 8.12544C8.53481 8.0395 8.86569 7.93794 9.47506 7.90994C10.0516 7.88387 10.2751 7.87606 11.4399 7.87475V7.87631ZM15.3368 8.91406C14.9228 8.91406 14.5868 9.24969 14.5868 9.66381C14.5868 10.0779 14.9228 10.4138 15.3368 10.4138C15.7509 10.4138 16.0868 10.0779 16.0868 9.66381C16.0868 9.24975 15.7509 8.91381 15.3368 8.91381V8.91406ZM12.0006 9.79038C10.2281 9.79038 8.79094 11.2275 8.79094 13.0001C8.79094 14.7726 10.2281 16.2091 12.0006 16.2091C13.7731 16.2091 15.2098 14.7726 15.2098 13.0001C15.2098 11.2276 13.773 9.79038 12.0004 9.79038H12.0006ZM12.0006 10.9167C13.1511 10.9167 14.0839 11.8494 14.0839 13.0001C14.0839 14.1506 13.1511 15.0834 12.0006 15.0834C10.8499 15.0834 9.91725 14.1506 9.91725 13.0001C9.91725 11.8494 10.8499 10.9167 12.0006 10.9167Z" fill="white"/>
</g>
<defs>
<linearGradient id="paint0_linear_1099_17940" x1="4" y1="21" x2="20" y2="8" gradientUnits="userSpaceOnUse">
<stop stop-color="#FFC351"/>
<stop offset="0.229167" stop-color="#F64F4F"/>
<stop offset="0.619792" stop-color="#CF3B9D"/>
<stop offset="0.989583" stop-color="#515BCB"/>
</linearGradient>
<radialGradient id="paint1_radial_1099_17940" cx="0" cy="0" r="1" gradientUnits="userSpaceOnUse" gradientTransform="translate(8.25 22.2323) rotate(-90) scale(15.8572 14.7484)">
<stop stop-color="#FFDD55"/>
<stop offset="0.1" stop-color="#FFDD55"/>
<stop offset="0.5" stop-color="#FF543E"/>
<stop offset="1" stop-color="#C837AB"/>
</radialGradient>
<radialGradient id="paint2_radial_1099_17940" cx="0" cy="0" r="1" gradientUnits="userSpaceOnUse" gradientTransform="translate(1.31994 6.15256) rotate(78.681) scale(7.08825 29.218)">
<stop stop-color="#3771C8"/>
<stop offset="0.128" stop-color="#3771C8"/>
<stop offset="1" stop-color="#6600FF" stop-opacity="0"/>
</radialGradient>
<clipPath id="clip0_1099_17940">
<rect width="16" height="16" fill="white" transform="translate(4 5)"/>
</clipPath>
</defs>
</svg>
