<svg width="24" height="25" viewBox="0 0 24 25" fill="none" xmlns="http://www.w3.org/2000/svg">
<path d="M17 21.5L18.8 23.27C19.3 23.77 20 23.37 20 22.78V18.5L22.8 15.1C22.9114 14.9514 22.9793 14.7748 22.996 14.5898C23.0126 14.4048 22.9775 14.2189 22.8944 14.0528C22.8114 13.8867 22.6837 13.747 22.5257 13.6493C22.3678 13.5517 22.1857 13.5 22 13.5H15C14.2 13.5 13.7 14.5 14.2 15.1L17 18.5V21.5ZM15 20.5H2V17.5C2 14.8 7.3 13.5 10 13.5C10.6 13.5 11.3 13.6 12.1 13.7C11.9 14.3 12 15 12.2 15.6C11.5 15.5 10.7 15.4 10 15.4C7 15.4 3.9 16.9 3.9 17.5V18.6H14.5L15 19.2V20.5ZM10 4.5C7.8 4.5 6 6.3 6 8.5C6 10.7 7.8 12.5 10 12.5C12.2 12.5 14 10.7 14 8.5C14 6.3 12.2 4.5 10 4.5ZM10 10.5C8.9 10.5 8 9.6 8 8.5C8 7.4 8.9 6.5 10 6.5C11.1 6.5 12 7.4 12 8.5C12 9.6 11.1 10.5 10 10.5Z" fill="#05766F"/>
</svg>
