<svg width="24" height="25" viewBox="0 0 24 25" fill="none" xmlns="http://www.w3.org/2000/svg">
<path fill-rule="evenodd" clip-rule="evenodd" d="M11.948 1.75H12.052C12.951 1.75 13.7 1.75 14.294 1.83C14.922 1.914 15.489 2.1 15.944 2.555C16.4 3.011 16.586 3.578 16.67 4.205C16.73 4.645 16.745 5.169 16.749 5.775C17.397 5.796 17.975 5.835 18.489 5.903C19.661 6.061 20.61 6.393 21.359 7.141C22.107 7.89 22.439 8.839 22.597 10.011C22.75 11.151 22.75 12.606 22.75 14.444V14.556C22.75 16.394 22.75 17.85 22.597 18.989C22.439 20.161 22.107 21.11 21.359 21.859C20.61 22.607 19.661 22.939 18.489 23.097C17.349 23.25 15.894 23.25 14.056 23.25H9.944C8.106 23.25 6.65 23.25 5.511 23.097C4.339 22.939 3.39 22.607 2.641 21.859C1.893 21.11 1.561 20.161 1.403 18.989C1.25 17.849 1.25 16.394 1.25 14.556V14.444C1.25 12.606 1.25 11.15 1.403 10.011C1.561 8.839 1.893 7.89 2.641 7.141C3.39 6.393 4.339 6.061 5.511 5.903C6.08852 5.8315 6.66924 5.78878 7.251 5.775C7.255 5.169 7.271 4.645 7.33 4.205C7.414 3.578 7.6 3.011 8.055 2.555C8.511 2.1 9.078 1.915 9.705 1.83C10.3 1.75 11.05 1.75 11.948 1.75ZM8.752 5.752C9.13 5.75 9.527 5.75 9.944 5.75H14.056C14.473 5.75 14.87 5.75 15.248 5.752C15.244 5.182 15.23 4.752 15.184 4.405C15.121 3.944 15.014 3.746 14.884 3.616C14.754 3.486 14.556 3.379 14.094 3.316C13.612 3.252 12.964 3.25 12 3.25C11.036 3.25 10.388 3.252 9.905 3.317C9.444 3.379 9.246 3.486 9.116 3.617C8.986 3.747 8.879 3.944 8.816 4.405C8.77 4.751 8.756 5.181 8.752 5.752ZM5.71 7.39C4.704 7.525 4.124 7.779 3.7 8.202C3.278 8.625 3.024 9.205 2.889 10.211C2.751 11.238 2.749 12.593 2.749 14.5C2.749 16.407 2.751 17.762 2.889 18.79C3.024 19.795 3.278 20.375 3.701 20.798C4.124 21.221 4.704 21.475 5.71 21.61C6.738 21.748 8.092 21.75 9.999 21.75H13.999C15.906 21.75 17.261 21.748 18.289 21.61C19.294 21.475 19.874 21.221 20.297 20.798C20.72 20.375 20.974 19.795 21.109 18.789C21.247 17.762 21.249 16.407 21.249 14.5C21.249 12.593 21.247 11.239 21.109 10.21C20.974 9.205 20.72 8.625 20.297 8.202C19.874 7.779 19.294 7.525 18.288 7.39C17.261 7.252 15.906 7.25 13.999 7.25H9.999C8.092 7.25 6.739 7.252 5.71 7.39ZM12 9.75C12.1989 9.75 12.3897 9.82902 12.5303 9.96967C12.671 10.1103 12.75 10.3011 12.75 10.5V10.51C13.839 10.784 14.75 11.643 14.75 12.833C14.75 13.0319 14.671 13.2227 14.5303 13.3633C14.3897 13.504 14.1989 13.583 14 13.583C13.8011 13.583 13.6103 13.504 13.4697 13.3633C13.329 13.2227 13.25 13.0319 13.25 12.833C13.25 12.449 12.824 11.917 12 11.917C11.176 11.917 10.75 12.449 10.75 12.833C10.75 13.217 11.176 13.75 12 13.75C13.385 13.75 14.75 14.71 14.75 16.167C14.75 17.357 13.839 18.215 12.75 18.49V18.5C12.75 18.6989 12.671 18.8897 12.5303 19.0303C12.3897 19.171 12.1989 19.25 12 19.25C11.8011 19.25 11.6103 19.171 11.4697 19.0303C11.329 18.8897 11.25 18.6989 11.25 18.5V18.49C10.161 18.216 9.25 17.357 9.25 16.167C9.25 15.9681 9.32902 15.7773 9.46967 15.6367C9.61032 15.496 9.80109 15.417 10 15.417C10.1989 15.417 10.3897 15.496 10.5303 15.6367C10.671 15.7773 10.75 15.9681 10.75 16.167C10.75 16.551 11.176 17.083 12 17.083C12.824 17.083 13.25 16.551 13.25 16.167C13.25 15.783 12.824 15.25 12 15.25C10.615 15.25 9.25 14.29 9.25 12.833C9.25 11.643 10.161 10.784 11.25 10.51V10.5C11.25 10.3011 11.329 10.1103 11.4697 9.96967C11.6103 9.82902 11.8011 9.75 12 9.75Z" fill="#05766F"/>
</svg>
