<svg width="24" height="25" viewBox="0 0 24 25" fill="none" xmlns="http://www.w3.org/2000/svg">
<path d="M3.42871 5.00007C3.42871 4.26125 3.7222 3.5527 4.24463 3.03027C4.76705 2.50785 5.47561 2.21436 6.21443 2.21436H17.7859C18.5247 2.21436 19.2332 2.50785 19.7557 3.03027C20.2781 3.5527 20.5716 4.26125 20.5716 5.00007V15.3964C20.4687 15.4649 20.3701 15.5455 20.2793 15.6364L19.2859 16.6298V5.00007C19.2859 4.60225 19.1278 4.22071 18.8465 3.93941C18.5652 3.65811 18.1837 3.50007 17.7859 3.50007H6.21443C5.8166 3.50007 5.43507 3.65811 5.15377 3.93941C4.87246 4.22071 4.71443 4.60225 4.71443 5.00007V20.0001C4.71443 20.8281 5.38643 21.5001 6.21443 21.5001H13.1299L14.4156 22.7858H6.21443C5.47561 22.7858 4.76705 22.4923 4.24463 21.9699C3.7222 21.4474 3.42871 20.7389 3.42871 20.0001V5.00007ZM9.00014 8.00007C9.00014 8.28423 8.88726 8.55675 8.68633 8.75768C8.48539 8.95862 8.21287 9.0715 7.92871 9.0715C7.64455 9.0715 7.37203 8.95862 7.1711 8.75768C6.97017 8.55675 6.85728 8.28423 6.85728 8.00007C6.85728 7.71591 6.97017 7.44339 7.1711 7.24246C7.37203 7.04152 7.64455 6.92864 7.92871 6.92864C8.21287 6.92864 8.48539 7.04152 8.68633 7.24246C8.88726 7.44339 9.00014 7.71591 9.00014 8.00007ZM7.92871 13.5715C8.21287 13.5715 8.48539 13.4586 8.68633 13.2577C8.88726 13.0568 9.00014 12.7842 9.00014 12.5001C9.00014 12.2159 8.88726 11.9434 8.68633 11.7425C8.48539 11.5415 8.21287 11.4286 7.92871 11.4286C7.64455 11.4286 7.37203 11.5415 7.1711 11.7425C6.97017 11.9434 6.85728 12.2159 6.85728 12.5001C6.85728 12.7842 6.97017 13.0568 7.1711 13.2577C7.37203 13.4586 7.64455 13.5715 7.92871 13.5715ZM7.92871 18.0715C8.21287 18.0715 8.48539 17.9586 8.68633 17.7577C8.88726 17.5568 9.00014 17.2842 9.00014 17.0001C9.00014 16.7159 8.88726 16.4434 8.68633 16.2425C8.48539 16.0415 8.21287 15.9286 7.92871 15.9286C7.64455 15.9286 7.37203 16.0415 7.1711 16.2425C6.97017 16.4434 6.85728 16.7159 6.85728 17.0001C6.85728 17.2842 6.97017 17.5568 7.1711 17.7577C7.37203 17.9586 7.64455 18.0715 7.92871 18.0715ZM10.9287 7.35721C10.7582 7.35721 10.5947 7.42494 10.4741 7.5455C10.3536 7.66606 10.2859 7.82957 10.2859 8.00007C10.2859 8.17057 10.3536 8.33408 10.4741 8.45464C10.5947 8.5752 10.7582 8.64293 10.9287 8.64293H16.5001C16.6706 8.64293 16.8342 8.5752 16.9547 8.45464C17.0753 8.33408 17.143 8.17057 17.143 8.00007C17.143 7.82957 17.0753 7.66606 16.9547 7.5455C16.8342 7.42494 16.6706 7.35721 16.5001 7.35721H10.9287ZM10.2859 12.5001C10.2859 12.3296 10.3536 12.1661 10.4741 12.0455C10.5947 11.9249 10.7582 11.8572 10.9287 11.8572H16.5001C16.6706 11.8572 16.8342 11.9249 16.9547 12.0455C17.0753 12.1661 17.143 12.3296 17.143 12.5001C17.143 12.6706 17.0753 12.8341 16.9547 12.9546C16.8342 13.0752 16.6706 13.1429 16.5001 13.1429H10.9287C10.7582 13.1429 10.5947 13.0752 10.4741 12.9546C10.3536 12.8341 10.2859 12.6706 10.2859 12.5001ZM10.9287 16.3572C10.7582 16.3572 10.5947 16.4249 10.4741 16.5455C10.3536 16.6661 10.2859 16.8296 10.2859 17.0001C10.2859 17.1706 10.3536 17.3341 10.4741 17.4546C10.5947 17.5752 10.7582 17.6429 10.9287 17.6429H16.5001C16.6706 17.6429 16.8342 17.5752 16.9547 17.4546C17.0753 17.3341 17.143 17.1706 17.143 17.0001C17.143 16.8296 17.0753 16.6661 16.9547 16.5455C16.8342 16.4249 16.6706 16.3572 16.5001 16.3572H10.9287ZM22.0973 17.4544L16.9544 22.5972C16.8339 22.7176 16.6705 22.7852 16.5001 22.7852C16.3298 22.7852 16.1664 22.7176 16.0459 22.5972L13.4761 20.0275C13.3626 19.9056 13.3008 19.7445 13.3037 19.5779C13.3066 19.4114 13.3741 19.2525 13.4919 19.1347C13.6097 19.0169 13.7686 18.9494 13.9351 18.9465C14.1017 18.9436 14.2628 19.0054 14.3847 19.1189L16.5001 21.2335L21.1887 16.5449C21.248 16.4836 21.319 16.4346 21.3974 16.401C21.4759 16.3673 21.5603 16.3496 21.6456 16.3489C21.731 16.3482 21.8156 16.3645 21.8946 16.3969C21.9736 16.4292 22.0454 16.477 22.1057 16.5374C22.166 16.5978 22.2137 16.6696 22.246 16.7486C22.2783 16.8276 22.2945 16.9123 22.2937 16.9976C22.2929 17.083 22.2752 17.1673 22.2414 17.2458C22.2077 17.3242 22.1587 17.3951 22.0973 17.4544Z" fill="#05766F"/>
</svg>
